<?xml version="1.0" encoding="utf-8"?>
<!-- Generator: Adobe Illustrator 24.1.1, SVG Export Plug-In . SVG Version: 6.00 Build 0)  -->
<svg version="1.1" id="Layer_1" xmlns="http://www.w3.org/2000/svg" xmlns:xlink="http://www.w3.org/1999/xlink" x="0px" y="0px"
	 viewBox="0 0 398.9 222.5" style="enable-background:new 0 0 398.9 222.5;" xml:space="preserve">
<style type="text/css">
	.st0{fill-rule:evenodd;clip-rule:evenodd;fill:#FFFFFF;}
	.st1{fill-rule:evenodd;clip-rule:evenodd;fill:#231F20;}
	.st2{fill:#FFFFFF;}
	.st3{fill:#221F1E;}
	.st4{fill:#231F20;}
	.st5{fill:#948274;}
</style>
<g>
	<g>
		<path class="st0" d="M37.3,103c0-0.2,0.1-0.3,0.1-0.5l0.1-1v0c-0.3-1.6-0.4-3.2-0.4-4.8c0-5.7,1.3-11.4,3.8-16.5
			c2.3-4.5,5.9-8.2,10.4-10.5c1.9-1,5.7-2.5,7.9-2.5h0.3c7.2-0.4,14.2,2.4,19.1,7.7c0.6,0.6,1.1,1.3,1.6,2.1l0.2,0.1
			c19.6,5.3,31.2,25.6,25.8,45.2c-2,7.3-6.2,13.8-12,18.6c-1.1,1-2.3,2-3.5,2.9l-1.8,1.4c-3.1,2.5-6.3,4.8-9.7,6.9
			c-3.6,2.1-9.2,4.7-13.3,2.6c-0.7-0.3-1.2-0.9-1.5-1.6c-0.1-0.5,0-1.1,0.3-1.6c0.6-0.8,1.5-1.3,2.5-1.6l1.1-0.5
			c0.7-0.4,1.2-1,1.4-1.8c0.1-0.5,0-1-0.4-1.3c-1-1.2-3.5-0.5-4.7,0c-1.3,0.5-2.5,1.2-3.7,1.8c-2,1.2-4.2,2.1-6.4,2.8
			c-2.3,0.7-4.8,0.5-6.9-0.7c-1.3-0.8-2.3-2-2.6-3.5c-0.5-2,0.1-3.9,0.6-5.9l0.3-1.2c1.4-3.9-3.2-5-6.2-4.3c-3.1,0.7-6.6,2.8-8,5.9
			l-0.7-0.2c0.4-4.7,1.3-9.4,2.6-13.9c1.2-4,2.4-6.2,4-9.8l0.2-1.7l0.2-2.2l0.5-1.1l0.3-1l-0.2-0.9l0.2-0.9l0.4-1.9l-0.2-2.2
			l-1.6-1.9L37.3,103L37.3,103z"/>
		<path class="st1" d="M70.3,147.4l0-0.2l0.4,0.4c0.6,0.6,4.6-1.6,5.1-1.9c3.4-2,6.7-4.2,9.7-6.7c0.6-0.5,1.2-1,1.8-1.4
			c6.2-5.1,10.7-10.1,12.7-18.1c2-8.3,0.4-17-4.6-24c-2.6-3.8-5.9-7-9.9-9.4l-0.1-0.1V86c-0.1-0.2-0.2-0.5-0.3-0.7l-0.1-0.4L82.9,81
			l-0.1-0.1L82.3,80h0l-0.2-0.4h-0.1L82,79.5l-0.8-1.3l-0.5-0.8l0.9,0.3c8.7,2.7,16,8.5,20.6,16.2c4.8,8.3,6.3,18.2,4,27.6
			c-2.4,9.5-8,16.1-15.6,22l-1.8,1.4c-3.1,2.5-6.3,4.7-9.7,6.8c-3.5,2-9,4.6-13,2.6c-0.6-0.3-1.1-0.7-1.3-1.3c0-0.1,0-0.2,0-0.4
			c0-0.1,0-0.1,0-0.2c0-0.3-0.1-0.2,0.1-0.5c0.1-0.3,0.3-0.6,0.6-0.8c0.3-0.2,1.2-0.6,1.4-0.8l1.6-0.8l0.9-1.1l0.5-1.4L70.3,147.4
			L70.3,147.4z M32.2,139.4c0,0,8.1-9,14.5-2.3c0,0,2.1-5.7,1.4-7.2c-0.7-1.5-7.2-4.8-14.4,1.4C32.9,134,32.4,136.7,32.2,139.4
			L32.2,139.4z M45.8,127.1c0,0,0.9-1.9,2.2-4.2c0.4,0.5,0.8,1.2,1.2,1.8c0,0.1,0.4,1.3,0.4,1.3l0.1,0.1l0.2,0.2
			c-0.4,1.3-0.8,2.5-1.1,3.4C48.9,129.6,47.8,127.5,45.8,127.1L45.8,127.1z M66.4,137.6c1-3,2.4-5.9,4.3-8.5h0
			c0.3,0,0.7,0.2,0.9,0.4l0.2,0.2h0.3l1.2-0.1c-1.2,3.2-2.1,6.5-2.6,9.9C69.8,138.1,68.1,137.3,66.4,137.6L66.4,137.6z M70.5,146.6
			c0,0-2-3.3-7.8,0.1c-4.9,2.9-10.6,4.8-13.7,3.6c-4.5-1.6-3.7-7.1-2.3-10.6c0,0,0.9,5.6,5.4,4.8c4.5-0.9,11.5-6.7,15.5-5.7
			C71.1,139.6,70.6,143.5,70.5,146.6L70.5,146.6z M36.8,117.8c0,0,0.7-1.5,1.2-1.7c0.5-0.3-0.3-1.6,0.7-3.3c0.9-1.7,0.1-2.4,0.1-2.4
			l0.9-2.9c0,0,0.5-2.1-2.1-4.5l0.1-1.5c-1-7.3,0.2-14.7,3.4-21.3c5.4-11,17.1-13,18.1-13c7.8-0.6,15.3,2.7,20.2,8.7
			c0,0,4.9,7.5,5.6,9.3c0.7,1.7,1.7,5.4,2,5.8c-0.3,0.6-0.9,1-1.5,1.2c0.2,0.7,0.6,1.2,1.2,1.6c0.4,1.3,0.7,2.7,0.8,4.1
			c0.1,1,0.6,1.9,1.5,2.5c0,0,0.8,1.3,0,2c0,0,5.6,15.9,6.1,17.2c0.5,1.3,1.7,3.4,0.4,4.5c-1.3,1.1-3.7,2.5-5.6,1.6l-2.4-9.7
			l0.3-1.5l-1.4-0.9c0,0,0.1-3.8-1.8-5.3c-2-1.5-1.9-5.7-1.9-5.7c0.4-0.6,1.2-0.9,1.9-0.7c0,0,4.5,0.5,2.6-1.5s-1.3-4.5-1.5-4.9
			c-0.8-2.3-2.7-1-3.7,0.3c-1.2,1.6-0.9,4-0.6,5.9c0,0.1,0.1,1.8,0.1,1.9c0.3,1.2,0.2,1,0.6,4.3l-0.8,3.3l-2.1-2.7l-1.1-5.6
			c0,0-1.7-5.2-3.7-6.2c-1.7-0.9-4.1-2.9-10.6,0.9c0,0-3.4,2.4-3.4,4.1c0,0,1.1,2,5.6,2.3c2.8,0.1,5.7-0.5,8.2-1.7
			c0,0,0.8,0,1.2,1.6c0.4,1.6,1.6,8.7,1.4,9.9c-0.1,0.8,0.1,1.6,0.4,2.4l-1.1,1.9l1.1,1.7v2.6c0,0,0.4,3.3,1.1,4.2c0,0,1,1.8-1.7,2
			c-2.8,0.1-4.7,0.3-4.7,0.3c-0.6-0.7-1.6-0.8-2.3-0.2c0,0,0,0-0.1,0.1c-1.2,1.2-8.7-0.4-10.1-0.8c-1.3-0.4-7.4-0.8-9.4-2.7
			l-0.4-1.2c0,0-1.9-2.8-2.2-2.9c-0.5-0.1-1-0.2-1.5-0.3l-0.5-4.1l0.8-0.7l-0.9-0.8c0.1-1,0.2-2,0.1-3c-0.1-0.5-0.1-4.9,0.5-6.7
			c0.7-1.9-2.8-3.6-2.8-3.6c-0.9,0.4-1.5,1.5-1.3,2.5c0.3,1.9-0.9,8.2-0.9,9c0,0.8-1.2,3.4-1.2,3.4S39.5,118.1,36.8,117.8
			L36.8,117.8z"/>
		<path class="st2" d="M63.9,142.1l0.6,1.7l-2.4,0.9l-0.6-1.7L63.9,142.1z"/>
		<path class="st2" d="M61.9,145.1l2.3-3.3L61.9,145.1z"/>
		<path class="st3" d="M61.8,145l0.2,0.1l2.4-3.4l-0.2-0.1L61.8,145z"/>
		<path class="st2" d="M64.9,143.8l-3.9-0.7L64.9,143.8z"/>
		<path class="st3" d="M61,143.2l3.9,0.7l0-0.3L61,143L61,143.2z"/>
		<path class="st2" d="M54.6,146.8l0.4,1.8l-2.7,0.8l-0.1-2L54.6,146.8z"/>
		<path class="st2" d="M52.2,149.4l2.8-3L52.2,149.4z"/>
		<path class="st3" d="M52.1,149.4l0.2,0.2l2.8-3l-0.2-0.2L52.1,149.4z"/>
		<path class="st2" d="M55.4,148.6l-3.8-1.3L55.4,148.6z"/>
		<path class="st3" d="M51.5,147.4l3.8,1.2l0.1-0.2l-3.8-1.2L51.5,147.4z"/>
		<path class="st2" d="M40.4,130.7l0.5,1.9l-2.7,0.8l0.2-1.9L40.4,130.7z"/>
		<path class="st2" d="M38.1,133.5l2.8-3L38.1,133.5z"/>
		<path class="st3" d="M38,133.4l0.2,0.2l2.8-3l-0.2-0.2L38,133.4z"/>
		<path class="st2" d="M41.3,132.6l-3.8-1.2L41.3,132.6z"/>
		<path class="st3" d="M37.4,131.5l3.8,1.2l0.1-0.2l-3.8-1.3L37.4,131.5z"/>
		<path class="st4" d="M39.2,136.4c0,0-10.4,3.8-5.9,13.1C33.3,149.4,33.1,142.9,39.2,136.4z"/>
		<path class="st4" d="M64.5,147.4l-0.5,4.1c0.5-1.2,1.6-2.1,2.8-2.4c2.5-0.8,2.7-3.1,0.2-2.7C66.2,146.6,65.3,146.9,64.5,147.4
			L64.5,147.4z"/>
		<path class="st5" d="M59.6,66.8h-0.3c-1.9,0-13.3,2.5-18.6,13.3c-2.5,5.2-3.9,10.9-3.9,16.7c0,1.6,0.1,3.3,0.4,4.9l-0.1,0.9
			c-0.1,0.5-0.3,0.9-0.4,1.4c-0.7,2.7-1,5.5-1.1,8.3c-0.1,1.1,0.4,5.7,0.4,6.1l0.7,0.1H37c-5.5,11.1-6,23.6-6,23.7l1,0.2
			c1-3.6,4.8-5.9,8.1-6.7c1.7-0.4,4-0.2,5.2,1c0.7,0.8,0.9,1.8,0.6,2.8l-0.4,1.2c-0.6,1.9-1.1,3.9-0.6,6.1c0.4,1.6,1.4,2.9,2.8,3.7
			c2.2,1.2,4.8,1.4,7.2,0.7c2.3-0.7,4.4-1.6,6.5-2.8c1.2-0.6,2.4-1.3,3.6-1.8c1.5-0.6,3.5-1,4.3-0.1c0.3,0.3,0.4,0.7,0.3,1
			c-0.2,0.7-0.6,1.2-1.3,1.6l-1,0.5c-1,0.3-1.9,0.9-2.6,1.8c-0.4,0.5-0.5,1.2-0.4,1.8c0.3,0.8,0.9,1.5,1.6,1.8
			c3.1,1.7,7.6,0.8,13.6-2.6c3.4-2.1,6.7-4.4,9.7-6.9l1.7-1.3c1.2-0.9,2.4-2,3.5-3c15.8-13.1,18-36.5,4.9-52.3
			C94.5,82.9,88,78.7,80.6,76.7L80,75.7C75.1,69.6,67.5,66.3,59.6,66.8L59.6,66.8z M94.8,132.2c-1.1,1.3-2.4,2.6-3.7,3.8l-0.2,0.2
			l-0.1,0.1l2,2.5c-0.6,0.5-1.7,1.3-2.6,2.1l-1.8-2.6l-0.4,0.4c0,0-1.6,1.4-4.4,3.4l-0.4,0.3l1.5,2.9L82,147l-1.5-2.8l-5.1,3.2
			l1.2,2.9c-1,0.6-2,1.1-3,1.4l-0.6-3l-0.6,0.3c-1,0.4-2.1,0.7-3.2,0.8c0.8-0.5,1.4-1.3,1.6-2.2c0.1-0.7-0.1-1.4-0.5-1.9
			c-1.5-1.7-4.6-0.6-5.5-0.2c-1.3,0.5-2.5,1.2-3.7,1.8c-2,1.1-4.1,2-6.3,2.7c-2.1,0.6-4.4,0.4-6.3-0.6c-1.2-0.7-2-1.8-2.3-3.1
			c-0.3-1.4-0.2-2.9,0.3-4.3c0.2,0.7,0.5,1.5,0.9,2.1l-0.4,2.5l0.1,0.2c1.7,3,4.1,3,4.2,3h0.5c0,0,0-2.8-0.1-3.6
			c0.6,0,1.2-0.1,1.8-0.2c0.7-0.2,1.4-0.5,2.1-0.8c0.1,0.9,0.6,3.4,0.6,3.4l0.6-0.2c0.1,0,1.6-0.6,2.3-1c0.9-0.4,2.2-1.2,2.3-1.3
			l0.3-0.2l-0.8-3.7c1.3-0.8,2.8-1.4,4.3-1.8c0.2,0.7,0.8,3.7,0.8,3.7l0.6-0.2c2.1-0.8,4.2,1.2,4.2,1.2l0-1.3c0,0-2.5-1.4-4.1-1
			c-0.2-0.8-0.8-3.5-0.8-3.5l-0.5,0.1c-2,0.4-3.8,1.2-5.5,2.3l-0.3,0.2c0,0,0.7,3.1,0.8,3.7c-0.5,0.3-1.3,0.7-1.9,1
			c-0.4,0.2-1.1,0.5-1.6,0.7l-0.6-3.5l-0.6,0.3c-0.8,0.4-1.6,0.7-2.5,1c-0.7,0.1-1.4,0.2-2.1,0.2h-0.5c0,0,0,2.7,0.1,3.5
			c-1.1-0.4-2.1-1.2-2.6-2.2c0.1-0.3,0.4-2.6,0.4-2.6l-0.2-0.2c-0.6-1.1-1.1-2.3-1.3-3.5l0.2-0.6c0.4-1.3,0.1-2.8-0.8-3.8
			c-1.5-1.6-4.3-1.8-6.2-1.3c-3,0.7-5.7,2.4-7.6,4.9c0-0.4,0.1-0.9,0.2-1.4c0.6-0.7,1.2-1.4,1.9-1.9c0.9-0.7,1.7-1.3,2.7-1.8
			l0.2-0.1c0,0,0.2-2.7,0.2-3.1c1.2-0.8,2.6-1.3,4.1-1.5c0,0.8,0.1,3.6,0.1,3.6l0.6-0.1c1.5-0.2,3,0.4,4.1,1.5l0.5,0.5l0.4-0.6
			l0.8-1.1c0.1-0.4,0.2-0.8,0.3-1.3c0-0.4,0-0.9,0-1.3c0,0-1.1,1.8-1.6,2.6c-1.1-0.9-2.5-1.4-3.9-1.4c0-0.8-0.1-3.5-0.1-3.5h-0.5
			c-1.9,0.1-3.8,0.7-5.4,1.9l-0.2,0.1c0,0-0.2,2.6-0.2,3.1c-0.9,0.5-1.8,1.1-2.7,1.8c-0.2,0.2-0.6,0.5-0.9,0.7
			c0.9-6.1,2.8-12,5.4-17.5c1.6-0.1,2.1-0.7,2.2-0.9c0.4-1,0.7-2,1-3c0.2-0.8,0.3-1.6,0.5-2.7c0.4-2.1,0.6-4.2,0.7-6.3
			c0-0.3,0-0.5,0-0.8c0-0.1,0-0.2,0-0.3c0-0.6,0.3-1.2,0.8-1.5c0.8,0.5,2.4,1.5,2.4,2.5c0,0.1,0,0.2,0,0.3c-0.5,1.8-0.7,3.6-0.6,5.5
			c0,0.5,0,1.1,0.1,1.6c0,0.1,0,0.2,0,0.4c0,0.6-0.1,1.6-0.2,2.5v0.3l0.7,0.6l-0.5,0.4l0.6,4.8l0.4,0.1c0.4,0,1,0.1,1.3,0.2
			c0.7,0.8,1.4,1.7,2,2.7c0,0.1,0.4,1.3,0.4,1.3l0.1,0.1c1.6,1.5,5.3,2.1,7.8,2.4c0.8,0.1,1.5,0.2,1.8,0.3c0.1,0,8.9,2.3,10.6,0.7
			c0.2-0.2,0.4-0.3,0.7-0.3c0.3,0,0.7,0.2,0.9,0.4l0.2,0.2h0.3l4.8-0.3c1.1-0.1,1.9-0.4,2.2-1c0.1-0.2,0.2-0.5,0.2-0.8
			c0-0.4-0.1-0.7-0.3-1c-0.4-0.6-0.8-2.7-1-3.9v-2.7l-1-1.6c0.2-0.4,1-1.8,1-1.8l-0.1-0.3c-0.2-0.6-0.4-1.2-0.4-1.8
			c0-0.1,0-0.2,0-0.3c0-0.1,0-0.2,0-0.3c-0.3-3.3-0.8-6.6-1.6-9.8c-0.5-1.9-1.6-2-1.7-2h-0.1l-0.1,0.1c-2.5,1.2-5.2,1.8-7.9,1.7
			c-3.5-0.2-4.7-1.5-5-1.9c0.1-1.1,2-2.7,3.1-3.5c5.7-3.4,7.9-2.1,9.6-1.1l0.4,0.2c1.5,0.8,3,4.5,3.4,5.9l1.1,5.6l2.9,3.6l1.1-4.5
			l-0.3-2.8c0-0.2,0-0.4-0.1-0.6c0.2,1.4,0.7,3.1,1.9,4c1.6,1.1,1.6,4.1,1.6,4.7c0,0,0,0.1,0,0.1v0.3l1.3,0.8l-0.3,1.3l2.5,10
			l0.2,0.1c2.3,1.1,5-0.8,6.1-1.7c0.5-0.4,0.8-1.1,0.8-1.7c-0.1-1-0.3-1.9-0.8-2.8l-0.2-0.6c-0.5-1.2-5.2-14.7-6-16.9
			c0.2-0.3,0.3-0.6,0.3-0.9c0-0.5-0.2-1-0.4-1.4l-0.1-0.1l-0.1-0.1c-0.7-0.5-1.1-1.3-1.2-2.1c-0.1-1.4-0.4-2.9-0.8-4.3l-0.1-0.2
			L87,93.4c-0.3-0.2-0.6-0.4-0.7-0.8c0.5-0.3,0.9-0.7,1.3-1.2l0.1-0.3l-0.2-0.3c-0.1-0.2-0.5-1.5-0.8-2.5s-0.8-2.4-1.1-3.2
			c1.6,0.9,3.1,1.9,3.1,1.9l0.4,0.2l2-2.3c0.9,0.6,1.7,1.3,2.5,2l-1.7,2l-0.3,0.4l0.4,0.3c1.3,1.3,2.5,2.6,3.7,4.1l0.3,0.4l2.5-1.9
			c0.6,0.8,1.2,1.7,1.7,2.6l-2.3,1.4l-0.4,0.3l0.3,0.4c0.9,1.6,1.6,3.3,2.3,5l0.2,0.4l3-1.1c0.4,1,0.7,2,0.9,3.1l-2.4,0.9l-0.4,0.1
			l0.1,0.4c0.3,1.6,0.6,3.3,0.7,4.9v0.4h3c0,1.1,0,2.1,0,3.1l-3-0.2l0,0.5c-0.2,1.8-0.5,3.6-0.9,5.3l-0.1,0.5l3,0.8
			c-0.3,1.2-0.7,2.4-1.1,3.6l-3-1.1l-0.2,0.4c-0.7,1.6-1.5,3.2-2.4,4.7l-0.2,0.4l2.6,1.8c-0.6,0.9-1.2,1.8-1.9,2.6l-2.5-1.9
			L94.8,132.2L94.8,132.2z M92.3,136.3c1.1-1,2.1-2,3-3.1l1.7,1.3c-0.7,0.9-1.5,1.7-2.3,2.5l-0.6,0.6l-0.4,0.4L92.3,136.3
			L92.3,136.3z M84,84.2L84,84.2l0.1,0.1c0.2,0.4,0.4,0.7,0.6,1.1c0.3,0.8,0.7,2.1,1.1,3.2c0.4,1.3,0.6,2,0.8,2.4
			c-0.2,0.3-0.6,0.6-1,0.7L85,91.9l0.1,0.5c0.5,0.7,1.1,1.3,1.8,1.7c0.3,1.2,0.5,2.5,0.5,3.8c0,1.5,1.3,2.4,1.6,2.7
			c0.1,0.3,0.2,0.7,0.1,1c0,0.2-0.1,0.4-0.3,0.6l-0.5,0l0.1,0.4c0.2,0.6,5.6,15.9,6.1,17.2l0.2,0.6c0.4,0.7,0.6,1.5,0.7,2.4
			c0,0.4-0.1,0.7-0.4,0.9c-0.9,0.7-3.1,2.2-4.8,1.6c-0.1-0.5-2.2-9-2.3-9.3c0.1-0.2,0.4-1.8,0.4-1.8l-1.5-0.9c0-1-0.2-4.1-2.1-5.4
			c-1.4-1-1.6-3.8-1.6-5v0c0.3-0.4,0.7-0.5,1.1-0.3h0.1h0.1c0.9,0.1,3.1,0.3,3.6-0.7c0.2-0.5,0.1-1-0.5-1.6c-0.9-1.1-1.4-2.6-1.3-4
			c0-0.2,0-0.5-0.1-0.7C86,94.4,85.3,94,84.8,94c-1.1-0.2-2.4,0.8-3.1,1.7c-1.3,1.7-1.1,4.1-0.7,6.4c0.4,2.3,0.1,0.7,0.1,0.7
			c0.1,1.1,0.1,1.1,0.1,1.2c0.2,0.5,0.2,1,0.3,1.6c0,0,0.3,2.4,0.3,2.6s-0.3,1.2-0.5,2.1l-1.4-1.7l-1-5.5c-0.2-0.5-1.8-5.4-3.9-6.5
			l-0.4-0.2c-1.8-1-4.5-2.5-10.7,1.2c-0.4,0.3-3.7,2.6-3.7,4.6v0.1l0.1,0.1c0.1,0.1,1.3,2.3,6,2.5c2.9,0.1,5.7-0.4,8.3-1.7
			c0.1,0.1,0.4,0.4,0.6,1.1c0.7,3.1,1.2,6.3,1.4,9.5c0,0.1,0,0.1,0,0.2c0,0.1,0,0.3,0,0.4c0,0.7,0.1,1.3,0.4,1.9l-1.1,1.9l1.1,1.9
			v2.5c0,0.4,0.4,3.5,1.1,4.5h0c0.1,0.1,0.1,0.3,0.1,0.5c0,0.1,0,0.2-0.1,0.2c-0.1,0.3-0.6,0.4-1.4,0.5l-4.5,0.3
			c-0.4-0.4-0.9-0.6-1.5-0.6c-0.6,0-1.1,0.2-1.5,0.7c-0.8,0.8-7.3-0.3-9.5-0.9c-0.4-0.1-1.1-0.2-1.9-0.3c-2.2-0.3-5.8-0.9-7.2-2.1
			l-0.4-1.1l0-0.1c-2-2.9-2.4-3.1-2.5-3.1c-0.4-0.1-0.8-0.2-1.1-0.2c-0.1-0.6-0.4-3-0.4-3.4l1-0.9l-1.2-1c0.1-0.6,0.1-1.6,0.1-2.3
			c0-0.2,0-0.5-0.1-0.7c0-0.4-0.1-0.8-0.1-1.2c0-1.8,0.1-3.5,0.6-5.2c0.1-0.2,0.1-0.4,0.1-0.7c0-1.9-2.8-3.4-3.1-3.6l-0.2-0.1
			l-0.2,0.1c-1,0.5-1.7,1.5-1.7,2.6c0,0.2,0,0.3,0,0.5v0.6c-0.1,2.1-0.3,4.1-0.7,6.1c-0.2,1.5-0.6,3-1,4.5c-0.3,0.7-0.5,1.1-1.3,1.3
			l-1.1,0.2c0.9-1.1,1.3-1.1,1.3-2.6l0.1-1.1l0.6-1.5h0c0.1-0.4,0.2-0.7,0.2-1.1c0-0.3-0.1-0.7-0.3-1l0.8-2.7c0-0.2,0.1-0.4,0.1-0.6
			c0-0.9-0.3-2.5-2.1-4.2c0-0.3,0.1-1.2,0.1-1.2v-0.1c-0.2-1.5-0.4-3.1-0.3-4.7c0-5.6,1.3-11.2,3.7-16.3
			c5.1-10.3,16.2-12.7,17.6-12.7h0.3c7.5-0.5,14.7,2.7,19.5,8.5C80.4,78.4,82.8,82.1,84,84.2L84,84.2z M90.3,84.4L88.9,86
			c-1.2-0.8-2.5-1.5-3.7-2.2c0.2-0.4,0.5-1.3,0.8-1.9C87.5,82.7,88.9,83.5,90.3,84.4L90.3,84.4z M85.1,81.5L84.5,83
			c-0.4-0.7-0.9-1.6-1.4-2.4C83.7,80.9,84.4,81.2,85.1,81.5L85.1,81.5z M97.7,91.5L96,92.8c-1-1.2-2-2.4-3.1-3.5l1.4-1.6
			C95.5,88.9,96.6,90.1,97.7,91.5L97.7,91.5z M102.7,100.3l-2.1,0.8c-0.6-1.4-1.2-2.9-2-4.2l1.8-1.1
			C101.3,97.2,102.1,98.8,102.7,100.3L102.7,100.3z M104.9,110.2h-2c-0.1-0.8-0.3-2.6-0.6-4.2l1.9-0.7
			C104.5,106.9,104.8,108.5,104.9,110.2z M104,120.3l-2-0.6c0.3-1.5,0.6-3,0.8-4.6l2,0.1C104.7,117,104.4,118.7,104,120.3L104,120.3
			z M100,130.3l-1.8-1.2c0.7-1.3,1.4-2.6,2-4l2.1,0.7C101.6,127.3,100.9,128.8,100,130.3L100,130.3z M90.3,143.2l-1.7,1.4
			c-3,2.5-6.2,4.8-9.6,6.8c-5.6,3.2-9.8,4.1-12.6,2.6c-0.5-0.2-0.9-0.6-1.1-1.1c-0.1-0.3,0-0.7,0.2-1c0.3,0.8,0.9,1.4,1.8,1.6l0.3,0
			h0.2h0c0.9,0.1,1.8,0.1,2.6,0l2.3-0.6l0.4-0.1c1.5-0.4,3-1,4.3-1.9l0.1-0.1c0,0,1.6-0.8,2.1-1.1c0.8-0.5,2.4-1.6,2.4-1.6l4.1-2.7
			c0.6-0.4,1.6-1.1,2.2-1.6c0.8-0.7,2.2-1.9,2.2-1.9c0.6-0.5,1.3-1.1,1.9-1.6c1.1-0.9,2.1-1.8,3.1-2.8c13.9-13.6,14.1-35.9,0.5-49.7
			c-3.8-3.9-8.5-6.9-13.7-8.6c-0.3-0.4-0.6-0.9-0.8-1.3c19.1,5.9,29.8,26.1,23.9,45.2c-2,6.7-6,12.6-11.3,17.1c-1.2,1-2.4,2.1-3.6,3
			L90.3,143.2z M37.7,103.9c0.9,0.8,1.4,1.9,1.5,3.1c0,0.1,0,0.2,0,0.4l-0.9,2.9l-0.1,0.3l0.3,0.2c0.1,0.1,0.2,0.3,0.1,0.5
			c0,0.4-0.1,0.9-0.4,1.3c-0.4,0.7-0.6,1.5-0.6,2.2v0.5c0,0.5-0.3,1.1-0.8,1.3c-0.5-4.2-0.2-8.4,0.8-12.5L37.7,103.9L37.7,103.9z
			 M67.2,150.7l-0.2,1.5c-0.3-0.2-0.5-0.6-0.5-1v-0.1C66.7,150.9,66.9,150.8,67.2,150.7z M85.5,144.4l-1-1.8c1.8-1.3,3-2.3,3.6-2.8
			l1.2,1.7c-0.5,0.4-2.1,1.7-2.5,2C86.5,143.8,85.9,144.1,85.5,144.4z M67.9,152.7l0.3-1.8c1.3,0.1,2.6-0.2,3.8-0.6
			c0.1,0.4,0.3,1.3,0.4,1.9c-0.5,0.1-1.8,0.5-2.3,0.6C69.4,152.8,68.7,152.8,67.9,152.7L67.9,152.7z M77.3,149.7l-0.8-1.9
			c0.6-0.4,2.8-1.7,3.4-2.1l1,1.8L77.3,149.7L77.3,149.7z M94.6,121.5c0,0,0.9,1.2-0.1,1.6c-1.1,0.4-2.7,1.3-3.1,1.2
			c-0.4-0.2-0.6-0.5-0.5-0.9C90.9,122.9,92.6,123.5,94.6,121.5L94.6,121.5z M55.6,69.8l2.5-0.8l5.2,0.7L55.6,69.8z M51.1,71.6
			l2.6-1.2l7.8,0.7L51.1,71.6z M47.5,74.3l1.9-1.8l9.7,0.6L47.5,74.3z M45,77l1.5-1.7l10.6,0.5L45,77z M43.4,79.6l0.8-1.6l9.8,0.5
			L43.4,79.6L43.4,79.6z M42.4,82.1l0.6-1.6l11.4,0.7L42.4,82.1z M41.1,84.8l0.6-1.7l13.5,0.4L41.1,84.8L41.1,84.8z M40.6,87.4
			l0.4-1.6l13.5,0.4L40.6,87.4L40.6,87.4z M40.1,90l0.3-1.7l14.7,0.6L40.1,90L40.1,90z M39.6,92.9l0.2-1.9l14.2,0.6L39.6,92.9
			L39.6,92.9z M39.5,95.5v-1.8l12.6,0.7L39.5,95.5L39.5,95.5z M48.6,97.3l-9,1v-1.9L48.6,97.3z M39.7,100.6V99l4.7,0.5L39.7,100.6
			L39.7,100.6z M39.2,101.8c0,0,8.5-1.5,21-11.8s15.5-5.9,16.5-5.5c0,0,2.2-4.5,6-0.9c0,0-4.6-1.6-5.4,2.9c0,0-4-2.8-7.7-1.1
			C58.7,90.7,49.1,101.7,39.2,101.8L39.2,101.8z M66.5,88.2l1.8-1l1.3,0.6L66.5,88.2L66.5,88.2z M63.6,90l1.9-1.5l1.8,0.6L63.6,90z
			 M60.9,91.8l1.9-1.5l2.8,0.6L60.9,91.8L60.9,91.8z M57.8,94l1.9-1.5l3.5,0.5L57.8,94z M55.1,95.8l1.9-1.5l3.7,0.5L55.1,95.8z
			 M51.6,98l2.1-1.4l5.6,0.3L51.6,98z M47.6,100.6l2.8-1.6l7.7,0.2L47.6,100.6z M58.9,97.8c0,0,8.8-8.1,14.6-6.4
			c0.9,0.4,1.8,0.9,2.7,1.5c2,1.6,2.2,2.9,3.6,0.1c0.7-1.5,2.4-4.8,4.6-3.7c0.6,0.4,1,1.1,1.1,1.9c0-0.4-1-1.1-1.4-1.1
			c-2.8-0.2-2.9,6.2-5.3,6.4c0,0-1.2,0.1-2.7-1.5C74.7,93.4,71.5,89.9,58.9,97.8L58.9,97.8z M46.8,103l-1.4-1.1l1.1-0.6l9.6,0.5
			L46.8,103L46.8,103z M47.7,105.8l-0.1-2l9.4,0.6L47.7,105.8z M47.3,108l0.4-1.6l12.2,0.2L47.3,108L47.3,108z M47.2,110.3l0.3-1.6
			l14.7,0.2L47.2,110.3L47.2,110.3z M47.2,113l0.2-1.6l16.6,0.1L47.2,113L47.2,113z M47.8,115.4l-0.6-1.5l16.2,0.2L47.8,115.4
			L47.8,115.4z M47,118.2l1.3-1.6l14,0.4L47,118.2z M49.3,120.3l-1.2-1.2l17.4-0.3L49.3,120.3L49.3,120.3z M53.2,122.5l-2.5-1.4
			l16-0.2L53.2,122.5L53.2,122.5z M60,124.3l-3.7-0.9l13.3-0.4L60,124.3z M67.2,125.2l-3.7-0.6l7.9-0.2L67.2,125.2L67.2,125.2z
			 M51.2,123c0,0,9.2,3,11.8,2.4c0,0,0.9,2.3,2.3,0.5c0,0,6.8,0.6,8.2,0.1c0,0,2.5-0.1,2.6-0.9c0,0.9-0.5,1.7-1.3,2
			c-0.8,0.3-1.7,0.5-2.5,0.5c0,0-1.6-1.1-2.8,0c0,0-3.3,0.3-4.7-0.1C63.5,127.1,54.3,126,51.2,123L51.2,123z M82.2,102.8l-0.1-0.8
			c-0.2-0.9-0.3-1.8-0.3-2.7c-0.1-1,0.2-2,0.8-2.8c0.7-0.9,1.6-1.4,2.1-1.3c0.3,0,0.5,0.3,0.7,0.9v0.1c0,0.1,0,0.1,0,0.2v0.3
			c-0.1,1.6,0.5,3.3,1.6,4.5c0.1,0.1,0.2,0.3,0.3,0.4c-0.8,0.2-1.7,0.3-2.5,0.1h0.1c-0.9-0.3-2,0.1-2.5,0.9l-0.1,0.1v0.1
			c0,0,0,0.1,0,0.2c0,0.6,0.1,1.3,0.1,1.9c0-0.4-0.1-0.7-0.2-1.1L82.2,102.8L82.2,102.8z"/>
		<path class="st2" d="M86.5,83.7l0.9-1.6l2.2,1.3L88.7,85L86.5,83.7z"/>
		<path class="st2" d="M90,83.4l-3.8,0.3L90,83.4z"/>
		<path class="st3" d="M86.2,83.6l0,0.2l3.8-0.3l0-0.2L86.2,83.6z"/>
		<path class="st2" d="M87.2,81.8l1.8,3.7L87.2,81.8z"/>
		<path class="st3" d="M87.1,81.9l1.8,3.7l0.2-0.1l-1.8-3.7L87.1,81.9z"/>
		<path class="st2" d="M94.3,89.6l1.3-1.2l1.7,1.9L96,91.5L94.3,89.6z"/>
		<path class="st2" d="M97.7,90.3L94,89.5L97.7,90.3z"/>
		<path class="st3" d="M93.9,89.6l3.7,0.8l0-0.2L94,89.4L93.9,89.6z"/>
		<path class="st2" d="M95.5,88l0.6,4.1L95.5,88z"/>
		<path class="st3" d="M95.4,88l0.6,4.1l0.2,0L95.6,88L95.4,88z"/>
		<path class="st2" d="M100,97.5l1.6-0.8l1.1,2.3l-1.7,0.8L100,97.5z"/>
		<path class="st2" d="M103,99.2l-3.3-1.9L103,99.2z"/>
		<path class="st3" d="M99.6,97.4l3.3,1.9l0.1-0.2l-3.3-1.9L99.6,97.4z"/>
		<path class="st2" d="M101.6,96.3l-0.7,4.1L101.6,96.3z"/>
		<path class="st3" d="M100.9,100.4l0.2,0l0.7-4.1l-0.2,0L100.9,100.4z"/>
		<path class="st2" d="M103.1,106.7l1.8-0.3l0.4,2.5l-1.8,0.3L103.1,106.7z"/>
		<path class="st2" d="M105.5,109.2l-2.6-2.8L105.5,109.2z"/>
		<path class="st3" d="M102.8,106.5l2.6,2.8l0.2-0.2l-2.6-2.8L102.8,106.5z"/>
		<path class="st2" d="M105.1,106.1l-1.8,3.7L105.1,106.1z"/>
		<path class="st3" d="M103.1,109.7l0.2,0.1l1.8-3.7l-0.2-0.1L103.1,109.7z"/>
		<path class="st2" d="M103.4,116.5l1.8,0.3l-0.4,2.5L103,119L103.4,116.5z"/>
		<path class="st2" d="M105,119.6l-1.7-3.4L105,119.6z"/>
		<path class="st3" d="M103.2,116.2l1.7,3.4l0.2-0.1l-1.7-3.4L103.2,116.2z"/>
		<path class="st2" d="M105.5,116.4l-2.8,3L105.5,116.4z"/>
		<path class="st3" d="M102.5,119.4l0.2,0.2l2.8-3l-0.2-0.2L102.5,119.4z"/>
		<path class="st2" d="M79.7,147l1,1.5l-2.1,1.4l-1-1.5L79.7,147z"/>
		<path class="st2" d="M100.6,126.4l1.6,0.8l-1.1,2.2l-1.6-0.8L100.6,126.4z"/>
		<path class="st2" d="M101.1,129.8l-0.5-3.8L101.1,129.8z"/>
		<path class="st3" d="M100.5,126l0.5,3.8l0.2,0l-0.5-3.8L100.5,126z"/>
		<path class="st2" d="M102.6,126.9l-3.6,2L102.6,126.9z"/>
		<path class="st3" d="M98.9,128.8L99,129l3.6-2l-0.1-0.2L98.9,128.8z"/>
		<path class="st3" d="M93.7,139.1l-2-2.9L93.7,139.1z"/>
		<path class="st2" d="M95.2,134.5l1.3,1.3l-1.8,1.8l-1.3-1.3L95.2,134.5z"/>
		<path class="st2" d="M94.7,137.9l0.6-3.8L94.7,137.9z"/>
		<path class="st3" d="M94.6,137.9l0.3,0l0.6-3.8l-0.2,0L94.6,137.9z"/>
		<path class="st2" d="M96.9,135.7l-4.1,0.8L96.9,135.7z"/>
		<path class="st3" d="M92.8,136.4l0,0.2l4.1-0.8l-0.1-0.2L92.8,136.4z"/>
		<g>
			<path class="st2" d="M78.4,150.3l1.5-3.8L78.4,150.3z"/>
			<path class="st2" d="M81,148.4l-4,0.2L81,148.4z"/>
			<path class="st2" d="M87.9,141.3l1,1.5l-2.1,1.4l-1-1.5L87.9,141.3z"/>
			<path class="st2" d="M86.6,144.6l1.5-3.8L86.6,144.6z"/>
			<path class="st2" d="M89.2,142.7l-4,0.2L89.2,142.7z"/>
		</g>
		<path class="st3" d="M86.4,144.6l0.2,0.1l1.5-3.8l-0.2-0.1L86.4,144.6z"/>
		<path class="st3" d="M85.2,142.8l0,0.2l4-0.2l0-0.3L85.2,142.8z"/>
		<path class="st3" d="M88,140.8l-1.5,3.8L88,140.8z"/>
		<path class="st3" d="M85.2,143l4-0.2L85.2,143z"/>
		<path class="st2" d="M79.7,147l1,1.5l-2.1,1.4l-1-1.5L79.7,147z"/>
		<path class="st2" d="M78.4,150.3l1.5-3.8L78.4,150.3z"/>
		<path class="st3" d="M78.3,150.3l0.2,0.1l1.5-3.8l-0.2-0.1L78.3,150.3z"/>
		<path class="st2" d="M81,148.4l-4,0.2L81,148.4z"/>
		<path class="st3" d="M77,148.5l0,0.3l4-0.2l0-0.2L77,148.5z"/>
		<path class="st3" d="M78.3,150.3l0.2,0.1l1.5-3.8l-0.2-0.1L78.3,150.3z"/>
		<path class="st3" d="M77,148.5l0,0.3l4-0.2l0-0.2L77,148.5z"/>
		<path class="st2" d="M71.2,151.2l0.2,1.8l-2.5,0.2l-0.2-1.8L71.2,151.2z"/>
		<path class="st2" d="M68.5,153.6l3.1-2.7L68.5,153.6z"/>
		<path class="st3" d="M68.4,153.5l0.2,0.2l3.1-2.7l-0.2-0.2L68.4,153.5z"/>
		<path class="st2" d="M71.7,153.1l-3.2-1.5L71.7,153.1z"/>
		<path class="st3" d="M68.5,151.7l3.2,1.5l0.1-0.2l-3.2-1.5L68.5,151.7z"/>
	</g>
	<g>
		<path class="st2" d="M142.2,104.8h-6.4v-2.7h9.3v7c-2.1,3.8-6.2,6.2-10.6,6.1c-7,0-12.1-5.1-12.1-12.2c0-7.1,5.1-12.3,12.1-12.3
			c4.1-0.1,8,2,10.2,5.5l-2.4,1.7c-1.6-2.8-4.6-4.6-7.8-4.5c-5.2,0-9.1,4-9.1,9.6c0,5.6,3.9,9.5,9.1,9.5c3.1,0.1,6.1-1.5,7.7-4.2
			V104.8z M347.1,108.5c3.3,2.6,7,4,10.5,4c4.5,0,7.3-2.1,7.3-4.9c0-2.1-1.8-3.9-5.5-4.2c-4-0.3-7.2-0.4-9.6-1.5
			c-2.2-1-3.3-2.7-3.4-4.8c0-3.6,3.5-6.5,9.1-6.5c4,0,8,1.4,11.2,3.8l-1.7,2.5c-2.6-2.2-6-3.5-9.5-3.5c-3.7,0-6.1,1.7-6.1,3.6
			c0,0.8,0.4,1.6,1.1,2.1c2,1.5,5.3,1.2,9.6,1.7c4.9,0.6,7.7,3.4,7.7,6.9c0,4-3.7,7.5-10.3,7.5c-4.4,0.1-8.7-1.4-12.2-4.1
			L347.1,108.5L347.1,108.5z M318.3,102.9c0-7.1,5.1-12.3,12.1-12.3s12.2,5.2,12.2,12.3c0,7.1-5.2,12.3-12.1,12.3
			C323.4,115.2,318.3,110.1,318.3,102.9L318.3,102.9z M339.5,102.9c0-5.5-3.9-9.6-9.1-9.6c-5.2,0-9.1,4-9.1,9.6
			c0,5.6,3.9,9.5,9.1,9.5S339.5,108.4,339.5,102.9L339.5,102.9z M314.9,108.8c-2.1,4-6.2,6.5-10.8,6.4c-7,0-12.1-5.1-12.1-12.2
			s5.1-12.3,12.1-12.3c4.1-0.1,8,2,10.2,5.5l-2.5,1.7c-1.6-2.8-4.6-4.6-7.8-4.5c-5.2,0-9.1,4-9.1,9.6s3.9,9.5,9.1,9.5
			c3.6,0,6.6-1.8,8.4-5.3L314.9,108.8L314.9,108.8z M283.9,91h3v23.6h-2.9L283.9,91L283.9,91z M257.3,91.1h1.5l15.2,17.5V91.2h2.9
			v23.4h-1.5L260.2,97v17.5h-2.9L257.3,91.1L257.3,91.1z M239.7,91.1h2.4l11.6,23.4h-3.2l-3.2-6.3h-12.9l-3.1,6.3h-3.1L239.7,91.1
			L239.7,91.1z M246.1,105.5l-5.2-10.4l-5.1,10.4L246.1,105.5z M200.6,91.2h2.7l9.5,14.3l9.5-14.3h2.6v23.4h-2.8V96.3l-9.3,13.8
			l-9.3-13.8v18.3h-2.9L200.6,91.2L200.6,91.2z M174.7,91.2h13.4c4.6,0,7.3,2.5,7.3,6.5c0.1,3.3-2.3,6.1-5.5,6.6l5.8,10.3h-3.2
			l-5.9-10.2h-9.1v10.2h-2.9L174.7,91.2L174.7,91.2z M187.9,101.6c2.9,0,4.5-1.3,4.5-3.8s-1.5-3.9-4.3-3.9h-10.5v7.7L187.9,101.6z
			 M151.1,91.1h18.4v2.7H154v6.9h9.4v2.7H154v8.5h16.5v2.7h-19.4V91.1L151.1,91.1z"/>
		<path class="st2" d="M122.9,133v-8.9h5.2c0.7-0.1,1.4,0.1,2,0.6c0.5,0.4,0.7,1,0.7,1.6c0,0.3-0.1,0.6-0.2,0.9
			c-0.1,0.3-0.4,0.5-0.6,0.7c0.4,0.2,0.8,0.6,1.1,1c0.2,0.4,0.4,0.9,0.4,1.4c0,0.7-0.3,1.5-0.8,1.9c-0.6,0.5-1.4,0.8-2.2,0.7
			L122.9,133z M254.7,131.7l0.6-0.9c0.6,0.5,1.3,0.8,2,1.1c0.6,0.2,1.3,0.4,2,0.4c0.7,0,1.4-0.1,2-0.5c0.5-0.3,0.8-0.8,0.8-1.3
			c0-0.4-0.2-0.8-0.5-1.1c-0.5-0.3-1-0.5-1.5-0.5c-0.1,0-0.4,0-0.7,0c-1,0-2-0.2-3-0.5c-0.4-0.2-0.7-0.4-0.9-0.8
			c-0.2-0.3-0.3-0.7-0.3-1.1c0-0.7,0.4-1.4,1-1.8c0.7-0.5,1.6-0.7,2.5-0.7c0.7,0,1.5,0.1,2.2,0.4c0.7,0.3,1.4,0.6,2,1.1l-0.6,0.9
			c-0.5-0.4-1.1-0.8-1.7-1c-0.6-0.2-1.2-0.3-1.8-0.3c-0.6,0-1.1,0.1-1.6,0.4c-0.4,0.2-0.6,0.5-0.7,1c0,0.1,0,0.3,0.1,0.4
			c0.1,0.1,0.2,0.3,0.3,0.4c0.4,0.3,1.2,0.4,2.4,0.5c0.6,0,1,0.1,1.3,0.1c0.8,0.1,1.5,0.4,2.1,0.9c0.5,0.4,0.8,1.1,0.8,1.8
			c0,0.8-0.4,1.6-1.1,2c-0.8,0.6-1.8,0.8-2.8,0.8c-0.8,0-1.7-0.1-2.5-0.4C256.1,132.6,255.4,132.2,254.7,131.7L254.7,131.7z
			 M244.9,133v-8.9h5.1c0.7,0,1.5,0.2,2,0.7c0.5,0.5,0.8,1.1,0.7,1.8c0,1.2-0.9,2.3-2.1,2.5l2.2,3.9h-1.2l-2.2-3.9H246v3.9H244.9z
			 M246,128.1h3.9c0.4,0,0.9-0.1,1.2-0.4c0.3-0.3,0.5-0.7,0.4-1.1c0-0.4-0.1-0.8-0.4-1.1c-0.3-0.3-0.8-0.4-1.2-0.4h-4L246,128.1
			L246,128.1z M237.5,133.2c-1.2,0-2.4-0.4-3.3-1.3c-1.7-1.9-1.7-4.8,0-6.7c1.8-1.7,4.7-1.7,6.6,0c1.7,1.9,1.7,4.8,0,6.7
			C240,132.8,238.8,133.3,237.5,133.2L237.5,133.2z M237.5,132.2c0.9,0,1.8-0.3,2.5-1c1.3-1.5,1.3-3.7,0-5.2c-1.4-1.3-3.6-1.3-4.9,0
			c-0.7,0.7-1,1.6-1,2.6c0,1,0.3,1.9,1,2.6C235.7,131.9,236.6,132.2,237.5,132.2z M224.9,133v-8.9h1.1v7.8h5.8v1H224.9z M220.3,133
			v-8.9h1.1v8.9H220.3z M208.5,133l4.3-8.9h0.9l4.4,8.9H217l-1.2-2.4h-4.9l-1.2,2.4H208.5z M211.4,129.6h3.9l-2-4L211.4,129.6
			L211.4,129.6z M204.6,133v-7.9h-3.7v-1h8.6v1h-3.7v7.9H204.6z M187,133v-8.9h7v1h-5.9v2.6h3.6v1h-3.6v3.2h6.2v1H187z M176.5,133
			v-8.9h1.1v4.4l5.1-4.4h1.4l-3.6,3.2l4.1,5.7h-1.3l-3.6-5l-2.2,1.8v3.2L176.5,133z M169.1,133.3c-1.2,0-2.4-0.4-3.3-1.3
			c-1.7-1.9-1.7-4.8,0-6.7c1.8-1.7,4.7-1.7,6.6,0c1.7,1.9,1.7,4.8,0,6.7C171.6,132.8,170.4,133.3,169.1,133.3L169.1,133.3z
			 M169.1,132.2c0.9,0,1.8-0.3,2.5-1c1.3-1.5,1.3-3.7,0-5.2c-1.4-1.3-3.6-1.3-4.9,0c-0.7,0.7-1,1.6-1,2.6c0,1,0.3,1.9,1,2.6
			C167.3,131.9,168.2,132.2,169.1,132.2z M154.8,133v-8.9h5.1c0.7,0,1.5,0.2,2,0.6c0.5,0.4,0.8,1.1,0.7,1.8c0,0.7-0.2,1.4-0.7,1.8
			c-0.5,0.5-1.2,0.7-1.9,0.7h-4.1v3.9L154.8,133z M155.9,128.1h3.9c0.5,0,0.9-0.1,1.3-0.4c0.3-0.3,0.5-0.7,0.4-1.1
			c0-0.4-0.1-0.8-0.4-1.1c-0.3-0.3-0.8-0.4-1.2-0.4h-4L155.9,128.1L155.9,128.1z M143.4,131.7l0.6-0.9c0.6,0.5,1.3,0.8,2,1.1
			c0.6,0.2,1.3,0.4,2,0.4c0.7,0,1.4-0.1,2-0.5c0.5-0.3,0.8-0.8,0.8-1.3c0-0.4-0.2-0.8-0.5-1.1c-0.5-0.3-1-0.5-1.5-0.5
			c-0.2,0-0.4,0-0.7,0c-1,0-2-0.2-3-0.5c-0.4-0.2-0.7-0.4-0.9-0.8c-0.2-0.3-0.3-0.7-0.3-1.1c0-0.7,0.4-1.4,1-1.8
			c0.7-0.5,1.6-0.7,2.5-0.7c0.7,0,1.5,0.1,2.2,0.4c0.7,0.3,1.4,0.6,2,1.1l-0.6,0.9c-0.5-0.4-1.1-0.8-1.7-1c-0.6-0.2-1.2-0.3-1.8-0.3
			c-0.6,0-1.1,0.1-1.6,0.4c-0.4,0.2-0.6,0.6-0.7,1c0,0.1,0,0.3,0.1,0.4c0.1,0.1,0.2,0.3,0.3,0.4c0.4,0.3,1.1,0.4,2.4,0.5
			c0.5,0,1,0.1,1.3,0.1c0.8,0.1,1.5,0.4,2.1,0.9c0.5,0.4,0.8,1.1,0.8,1.8c0,0.8-0.4,1.6-1.1,2c-0.8,0.6-1.8,0.8-2.8,0.8
			c-0.8,0-1.7-0.1-2.5-0.4C144.8,132.6,144.1,132.2,143.4,131.7L143.4,131.7z M134.5,133v-8.9h7v1h-5.9v2.6h3.5v1h-3.5v3.2h6.2v1
			H134.5z M124,127.7h4.2c0.4,0,0.8-0.1,1.1-0.3c0.3-0.2,0.4-0.6,0.4-0.9c0-0.4-0.1-0.7-0.4-0.9c-0.3-0.2-0.7-0.3-1.1-0.3H124
			L124,127.7L124,127.7z M124,132h4.6c0.4,0,0.9-0.1,1.2-0.4c0.6-0.7,0.6-1.7,0-2.4c-0.3-0.3-0.7-0.5-1.2-0.4H124L124,132L124,132z"
			/>
		<g transform="translate(-13.14 -101.37)">
			<path class="st2" d="M136.1,243.1h4.2l-0.2,0.9h-3v2.4h2.9v0.9H137v2.6h3.4v0.9h-4.4V243.1z"/>
			<path class="st2" d="M142.7,250.9c-0.5,0-1.1-0.1-1.6-0.3l0.2-0.8c0.4,0.2,0.8,0.4,1.2,0.4c0.4,0,1.1-0.1,1.1-0.6
				c0-0.4-0.5-0.6-0.7-0.8c-0.4-0.2-0.8-0.5-1.1-0.7c-0.3-0.3-0.5-0.7-0.6-1.1c0-1,0.9-1.4,1.8-1.4c0.4,0,0.8,0.1,1.2,0.2v0.8
				c-0.1-0.1-0.3-0.1-0.4-0.2c-0.6-0.2-1.6-0.4-1.6,0.4c0,0.5,0.8,0.9,1.2,1.2c0.6,0.4,1.1,0.7,1.1,1.4
				C144.5,250.7,143.2,250.9,142.7,250.9L142.7,250.9z"/>
			<path class="st2" d="M147.8,250.8c-0.8,0.1-1.6-0.5-1.7-1.3c0-0.1,0-0.2,0-0.4v-2.7h-1v-0.8h1v-1.1l0.9-0.3v1.4h1.5l-0.1,0.8
				h-1.4v2.5c0,0.6,0.2,1.3,1.1,1.1c0.2-0.1,0.4-0.1,0.5-0.2v0.8C148.4,250.8,148.1,250.8,147.8,250.8L147.8,250.8z"/>
			<path class="st2" d="M151.1,250.2c0,0.4-0.3,0.7-0.7,0.8c-0.4,0-0.7-0.3-0.7-0.8c0,0,0,0,0,0c0-0.4,0.3-0.7,0.7-0.7
				C150.7,249.4,151.1,249.8,151.1,250.2z"/>
			<path class="st2" d="M158.1,244.4l-1.5,0.8l-0.4-0.8l2.3-1.3h0.6v7.6h-1V244.4z"/>
			<path class="st2" d="M162.3,250.1c1.2-0.7,2.1-1.8,2.5-3.1c-0.4,0.2-0.9,0.4-1.4,0.4c-1.2,0-2.2-0.9-2.3-2.2c0,0,0,0,0,0
				c0.1-1.3,1.1-2.3,2.4-2.2c0,0,0,0,0,0c1.4,0,2.6,1.2,2.6,2.6c0,0,0,0.1,0,0.1c0,1.8-1.3,3.9-3.2,5L162.3,250.1z M162.3,245.3
				c0.1,0.8,0.7,1.3,1.5,1.3c0.5,0,0.9-0.2,1.3-0.4c0.1-0.2,0.1-0.4,0.1-0.7c0-0.8-0.6-1.4-1.4-1.5
				C162.9,243.9,162.3,244.4,162.3,245.3C162.3,245.2,162.3,245.2,162.3,245.3L162.3,245.3z"/>
			<path class="st2" d="M168.4,250.1c1.2-0.6,2.1-1.8,2.5-3.1c-0.4,0.2-0.9,0.4-1.4,0.4c-1.2,0-2.2-0.9-2.3-2.2c0,0,0,0,0,0
				c0.1-1.3,1.1-2.3,2.4-2.2c0,0,0,0,0,0c1.4,0,2.6,1.2,2.6,2.6c0,0,0,0.1,0,0.1c0,1.8-1.3,3.9-3.2,5L168.4,250.1z M168.4,245.3
				c0.1,0.8,0.7,1.3,1.5,1.3c0.5,0,0.9-0.2,1.3-0.4c0.1-0.2,0.1-0.4,0.1-0.7c0-0.8-0.6-1.4-1.4-1.5
				C169,243.9,168.4,244.4,168.4,245.3C168.4,245.2,168.4,245.2,168.4,245.3L168.4,245.3z"/>
			<path class="st2" d="M174.5,250.1c1.2-0.6,2.1-1.8,2.5-3.1c-0.4,0.2-0.9,0.4-1.4,0.4c-1.2,0-2.2-0.9-2.3-2.2c0,0,0,0,0,0
				c0.1-1.3,1.1-2.3,2.4-2.2c0,0,0,0,0,0c1.4,0,2.6,1.2,2.6,2.6c0,0,0,0.1,0,0.1c0,1.8-1.3,3.9-3.2,5L174.5,250.1z M174.5,245.3
				c0.1,0.8,0.7,1.3,1.5,1.3c0.5,0,0.9-0.2,1.3-0.4c0.1-0.2,0.1-0.4,0.1-0.7c0-0.8-0.6-1.4-1.4-1.5
				C175.1,243.9,174.5,244.4,174.5,245.3C174.5,245.2,174.5,245.2,174.5,245.3L174.5,245.3z"/>
		</g>
	</g>
</g>
</svg>
